<svg xmlns="http://www.w3.org/2000/svg" width="18" height="18" fill="none"><path fill="#008600" d="M9 18A9 9 0 1 0 9 0a9 9 0 0 0 0 18Z"/><path fill="#fff" d="M4.46 9.893c0-1.542.75-2.34 1.945-2.34.9 0 1.448.345 1.643.446a.94.94 0 0 0 .253-.649c0-.447-.497-.9-1.945-.9-1.694 0-3.141 1.197-3.141 3.437 0 2.24 1.297 3.436 2.99 3.436 1.044 0 1.843-.345 2.096-.447V11.63c-.253.203-1.095.599-1.894.599-1.096 0-1.945-.801-1.945-2.343v.007l-.002.001Zm8.279-.05c.75-.9 1.448-1.945 1.945-3.293l-1.096-.397c-.7 1.895-1.744 3.193-2.99 4.237V3.863H9.402v9.324h1.196v-1.398c.447-.345.85-.699 1.298-1.095l1.096 1.894c.252.447.648.7 1.196.7.295 0 .497-.101.548-.152l-1.995-3.293h-.002Z"/></svg>